<svg width="162" height="54" viewBox="0 0 162 54" fill="none" xmlns="http://www.w3.org/2000/svg">
<path fill-rule="evenodd" clip-rule="evenodd" d="M162 54H0V0H162V54Z" fill="#295BA7"/>
<path fill-rule="evenodd" clip-rule="evenodd" d="M158.76 50.9127H3.24023V45.8124H158.76V50.9127ZM77.0799 12.4025C78.2828 12.4283 79.1926 12.7581 79.7982 13.3975C80.4702 14.0922 80.8002 15.1645 80.8002 16.6128V31.0081L65.5255 11.0933L59.4712 11.0961V12.4025H60.629C61.1581 12.4025 61.5904 12.4836 61.9259 12.643C62.1665 12.7581 62.5666 13.1174 63.1206 13.7227L63.3952 14.0746V31.2006C63.3952 32.2832 63.045 33.1971 62.337 33.9415C61.6356 34.6905 60.6778 35.0848 59.4712 35.1272V36.4345H69.1305V35.1272C67.6713 35.106 66.591 34.7559 65.8942 34.076C65.201 33.3961 64.8562 32.3661 64.8562 30.9841V15.7053L80.6619 36.4355H82.2612V16.3254C82.2612 15.5367 82.4271 14.8135 82.7636 14.1511C83.0945 13.4905 83.4853 13.0327 83.9388 12.7793C84.3887 12.5296 85.0717 12.4025 85.9796 12.4025V11.0961H77.079L77.0799 12.4025ZM96.498 35.3778C94.9743 35.3778 93.7133 34.8167 92.7326 33.69C91.8707 32.6913 91.4116 30.9731 91.3554 28.5409H102.873C102.855 26.9452 102.638 25.624 102.24 24.5747C101.665 23.0813 100.812 21.9398 99.6846 21.1392C98.5508 20.3422 97.2087 19.9442 95.6527 19.9442C93.5336 19.9442 91.7536 20.7439 90.3074 22.3414C88.8593 23.9399 88.1366 26.0349 88.1366 28.6293C88.1366 31.0422 88.8712 33.022 90.3415 34.5652C91.8163 36.1148 93.6257 36.8878 95.7772 36.8878C98.937 36.8878 101.356 35.2709 103.026 32.039L101.914 31.5572C100.546 34.1027 98.7462 35.3778 96.498 35.3778ZM92.6551 22.5451C93.4884 21.4828 94.5024 20.9503 95.697 20.9503C96.757 20.9503 97.6908 21.3898 98.4761 22.2696C99.2633 23.1513 99.6569 24.22 99.6569 25.4812C99.6569 26.1565 99.5408 26.6329 99.3113 26.9139C99.0836 27.1948 98.76 27.3349 98.3498 27.3349H91.3554C91.3895 25.2058 91.8218 23.6073 92.6551 22.5451ZM124.378 21.6016C125.201 21.6367 125.764 21.7555 126.057 21.9563C126.355 22.1609 126.504 22.4492 126.504 22.8168C126.504 23.1918 126.408 23.6432 126.213 24.173L123.317 32.2214L119.675 23.1642C119.581 22.9393 119.529 22.6993 119.52 22.4557C119.52 22.1876 119.631 21.9766 119.851 21.8283C120.078 21.6772 120.485 21.6016 121.078 21.6016H121.729V20.3957H113.974V21.6016C114.806 21.6016 115.388 21.7094 115.723 21.925C116.05 22.1415 116.431 22.7284 116.856 23.6875L113.757 32.2224L110.126 23.1651C110.016 22.9154 109.956 22.6459 109.952 22.3728C109.952 22.1425 110.05 21.9517 110.242 21.8135C110.437 21.6735 110.767 21.6026 111.218 21.6026H112.149V20.3966H105.039V21.6026C105.589 21.6256 105.973 21.714 106.205 21.8651C106.434 22.019 106.638 22.3147 106.825 22.756L112.6 36.8878H113.661L117.703 25.7632L122.16 36.8878H123.196L127.854 23.95C128.124 23.2176 128.465 22.674 128.865 22.3184C129.265 21.9656 129.853 21.7269 130.631 21.6016V20.3957H124.379V21.6016H124.378ZM145.51 29.1572C144.991 28.4395 144.261 27.9061 143.319 27.5643C142.745 27.3487 141.511 27.0843 139.615 26.7674C137.982 26.5103 136.885 26.1529 136.324 25.6977C135.754 25.2555 135.465 24.6991 135.465 24.0274C135.465 23.2674 135.775 22.6224 136.396 22.0927C137.011 21.5639 137.866 21.3022 138.949 21.3022C140.209 21.3022 141.272 21.6625 142.132 22.3829C142.989 23.1043 143.667 24.2863 144.174 25.9271H145.33L144.881 20.1948H144.178L143.044 21.3962C141.856 20.5302 140.563 20.0935 139.166 20.0935C137.336 20.0935 135.909 20.6997 134.891 21.9121C134.1 22.8629 133.706 23.9187 133.706 25.0832C133.706 25.8544 133.897 26.5665 134.281 27.2206C134.659 27.8751 135.212 28.4109 135.879 28.7675C136.564 29.1406 137.773 29.4981 139.509 29.839C141.327 30.1826 142.448 30.4406 142.884 30.6184C143.32 30.7962 143.657 31.0652 143.902 31.4273C144.147 31.7894 144.27 32.2113 144.27 32.6922C144.27 33.5315 143.935 34.2179 143.273 34.7642C142.609 35.3106 141.662 35.5805 140.421 35.5805C139.082 35.5805 137.95 35.2064 137.038 34.4565C136.123 33.7057 135.317 32.355 134.612 30.4037H133.455L133.797 36.7883H134.704L135.958 35.3483C137.315 36.3747 138.786 36.8869 140.377 36.8869C142.088 36.8869 143.499 36.394 144.616 35.4027C145.728 34.4178 146.282 33.2109 146.282 31.7866C146.281 30.752 146.029 29.8731 145.51 29.1572ZM46.1027 20.3118C46.0101 19.1887 45.8531 18.0718 45.6326 16.9666C47.5315 17.5673 49.046 18.3025 50.0249 19.1316C49.6633 17.532 49.0725 15.9929 48.2708 14.562C47.1637 13.5818 45.7488 12.7167 44.1099 12.0054C43.3973 10.3655 42.5299 8.95316 41.551 7.84299C40.1213 7.0481 38.5856 6.46086 36.9901 6.09898C37.8132 7.07924 38.5479 8.59293 39.1507 10.4899C38.044 10.27 36.9256 10.1138 35.801 10.0219V5.87694C34.9179 5.74059 34.0146 5.64478 33.0984 5.64478C32.1683 5.64478 31.2769 5.74059 30.3948 5.87694V10.0219C29.2702 10.1141 28.1518 10.2704 27.0451 10.4899C27.647 8.59293 28.3862 7.07924 29.2094 6.09898C27.6154 6.45992 26.0813 7.04722 24.654 7.84299C23.6686 8.94947 22.8021 10.3646 22.0887 12.0036C20.4452 12.7139 19.0293 13.5818 17.9167 14.5639C17.1226 15.9956 16.5355 17.5325 16.1727 19.1289C17.1535 18.3006 18.6689 17.5673 20.5714 16.9611C20.3523 18.0684 20.195 19.187 20.1004 20.3118H15.9478C15.8151 21.1972 15.7174 22.0881 15.7174 23.0168C15.7174 23.9381 15.8151 24.8354 15.9478 25.718H20.0976C20.2009 26.8742 20.3539 27.9945 20.5705 29.0678C18.6671 28.4635 17.1526 27.7274 16.1718 26.8991C16.5337 28.4948 17.1209 30.031 17.9158 31.4614C19.0256 32.4453 20.4442 33.3095 22.0841 34.0189C22.7975 35.657 23.6566 37.073 24.6374 38.1832C26.0701 38.9809 27.6097 39.5694 29.2094 39.9309C28.3853 38.9534 27.647 37.4406 27.0451 35.5409C28.1522 35.7585 29.2705 35.915 30.3948 36.0098V40.1538C31.2778 40.2892 32.1683 40.3841 33.0984 40.3841C34.0146 40.3841 34.9179 40.2892 35.801 40.1538V36.0098C36.925 35.918 38.0428 35.7617 39.1489 35.5418C38.5451 37.4406 37.8068 38.9534 36.9744 39.9309C38.5768 39.5738 40.1186 38.985 41.551 38.1832C42.5299 37.0739 43.3973 35.6606 44.1071 34.0217C45.7451 33.3113 47.1637 32.4453 48.2708 31.4614C49.0729 30.0333 49.6637 28.4966 50.0249 26.8991C49.0395 27.7255 47.5315 28.4635 45.6326 29.0669C45.8483 27.9955 46.005 26.8752 46.1027 25.7189H50.2351C50.3881 24.8363 50.471 23.939 50.471 23.0177C50.471 22.0899 50.3881 21.199 50.2351 20.3128L46.1027 20.3118ZM40.3186 15.7929C40.526 17.2144 40.6753 18.7254 40.7555 20.3109H35.8001V15.3608C37.3855 15.44 38.8982 15.5883 40.3186 15.7929ZM25.8716 15.7929C27.3715 15.5786 28.8805 15.4347 30.3939 15.3617V20.3118H25.4375C25.5186 18.7272 25.6698 17.2144 25.8716 15.7929ZM25.8716 30.237C25.6599 28.7375 25.515 27.2294 25.4375 25.7171H30.3939V30.6709C28.8806 30.5962 27.3715 30.4514 25.8716 30.237ZM40.3186 30.2379C38.82 30.4523 37.3122 30.5971 35.8001 30.6718V25.718H40.7555C40.6808 27.2306 40.535 28.7389 40.3186 30.2379Z" fill="white"/>
</svg>
