<svg width="500" height="500" viewBox="0 0 500 500" fill="none" xmlns="http://www.w3.org/2000/svg">
<path d="M162.979 350.576V341.122H166.173C166.915 341.122 167.521 341.255 167.992 341.523C168.466 341.788 168.817 342.146 169.045 342.599C169.273 343.051 169.387 343.556 169.387 344.113C169.387 344.67 169.273 345.176 169.045 345.632C168.82 346.087 168.472 346.451 168.002 346.721C167.531 346.989 166.927 347.123 166.192 347.123H163.902V346.107H166.155C166.663 346.107 167.071 346.02 167.378 345.844C167.686 345.669 167.909 345.432 168.048 345.133C168.189 344.832 168.26 344.492 168.26 344.113C168.26 343.734 168.189 343.396 168.048 343.097C167.909 342.799 167.685 342.565 167.374 342.396C167.063 342.223 166.651 342.137 166.137 342.137H164.124V350.576H162.979ZM170.654 350.576H169.453L172.925 341.122H174.107L177.578 350.576H176.378L173.553 342.617H173.479L170.654 350.576ZM171.097 346.883H175.935V347.899H171.097V346.883ZM185.07 344.076C184.968 343.765 184.834 343.487 184.668 343.241C184.505 342.991 184.31 342.779 184.082 342.603C183.857 342.428 183.602 342.294 183.316 342.202C183.029 342.109 182.715 342.063 182.374 342.063C181.814 342.063 181.304 342.208 180.846 342.497C180.387 342.787 180.023 343.213 179.752 343.776C179.481 344.339 179.345 345.03 179.345 345.849C179.345 346.667 179.482 347.358 179.756 347.922C180.03 348.485 180.401 348.911 180.869 349.2C181.337 349.49 181.863 349.634 182.448 349.634C182.989 349.634 183.466 349.519 183.879 349.288C184.294 349.054 184.617 348.725 184.848 348.3C185.082 347.872 185.199 347.369 185.199 346.791L185.55 346.864H182.706V345.849H186.307V346.864C186.307 347.643 186.141 348.32 185.809 348.896C185.479 349.471 185.024 349.917 184.442 350.234C183.863 350.548 183.199 350.705 182.448 350.705C181.611 350.705 180.875 350.508 180.241 350.114C179.61 349.721 179.118 349.16 178.764 348.434C178.413 347.708 178.237 346.846 178.237 345.849C178.237 345.101 178.338 344.429 178.538 343.831C178.741 343.231 179.027 342.72 179.396 342.299C179.766 341.877 180.203 341.554 180.707 341.329C181.212 341.105 181.768 340.992 182.374 340.992C182.872 340.992 183.337 341.068 183.768 341.219C184.202 341.366 184.588 341.577 184.927 341.851C185.268 342.122 185.553 342.446 185.781 342.825C186.009 343.201 186.166 343.618 186.252 344.076H185.07ZM188.268 350.576V341.122H193.974V342.137H189.413V345.332H193.678V346.347H189.413V349.56H194.048V350.576H188.268ZM205.898 341.122H207.043V347.382C207.043 348.028 206.891 348.605 206.586 349.113C206.285 349.617 205.858 350.016 205.307 350.308C204.756 350.598 204.11 350.742 203.368 350.742C202.627 350.742 201.98 350.598 201.43 350.308C200.879 350.016 200.451 349.617 200.146 349.113C199.845 348.605 199.694 348.028 199.694 347.382V341.122H200.839V347.289C200.839 347.751 200.94 348.162 201.143 348.522C201.346 348.879 201.636 349.16 202.011 349.367C202.39 349.57 202.842 349.671 203.368 349.671C203.895 349.671 204.347 349.57 204.726 349.367C205.104 349.16 205.394 348.879 205.594 348.522C205.797 348.162 205.898 347.751 205.898 347.289V341.122ZM216.827 341.122V350.576H215.719L210.567 343.153H210.474V350.576H209.329V341.122H210.437L215.608 348.563H215.7V341.122H216.827ZM222.035 350.576H219.118V341.122H222.164C223.082 341.122 223.866 341.311 224.519 341.689C225.171 342.065 225.671 342.605 226.019 343.31C226.367 344.011 226.541 344.852 226.541 345.83C226.541 346.815 226.365 347.663 226.015 348.374C225.664 349.082 225.153 349.627 224.482 350.008C223.811 350.387 222.995 350.576 222.035 350.576ZM220.262 349.56H221.961C222.743 349.56 223.391 349.41 223.905 349.108C224.419 348.806 224.802 348.377 225.054 347.82C225.307 347.263 225.433 346.6 225.433 345.83C225.433 345.067 225.308 344.41 225.059 343.859C224.81 343.305 224.437 342.88 223.942 342.585C223.446 342.286 222.829 342.137 222.091 342.137H220.262V349.56ZM228.461 350.576V341.122H234.167V342.137H229.606V345.332H233.872V346.347H229.606V349.56H234.241V350.576H228.461ZM236.231 350.576V341.122H239.425C240.164 341.122 240.77 341.248 241.244 341.5C241.718 341.749 242.069 342.093 242.297 342.53C242.525 342.967 242.638 343.464 242.638 344.021C242.638 344.578 242.525 345.072 242.297 345.503C242.069 345.933 241.72 346.272 241.249 346.518C240.778 346.761 240.176 346.883 239.444 346.883H236.859V345.849H239.407C239.912 345.849 240.318 345.775 240.626 345.627C240.937 345.48 241.161 345.27 241.3 344.999C241.441 344.725 241.512 344.399 241.512 344.021C241.512 343.642 241.441 343.311 241.3 343.028C241.158 342.745 240.932 342.527 240.621 342.373C240.31 342.216 239.899 342.137 239.388 342.137H237.376V350.576H236.231ZM240.681 346.329L243.008 350.576H241.678L239.388 346.329H240.681ZM255.81 344.076H254.666C254.598 343.747 254.479 343.458 254.31 343.208C254.144 342.959 253.941 342.75 253.701 342.58C253.464 342.408 253.201 342.279 252.911 342.193C252.622 342.106 252.32 342.063 252.006 342.063C251.434 342.063 250.915 342.208 250.451 342.497C249.989 342.787 249.621 343.213 249.347 343.776C249.077 344.339 248.941 345.03 248.941 345.849C248.941 346.667 249.077 347.358 249.347 347.922C249.621 348.485 249.989 348.911 250.451 349.2C250.915 349.49 251.434 349.634 252.006 349.634C252.32 349.634 252.622 349.591 252.911 349.505C253.201 349.419 253.464 349.291 253.701 349.122C253.941 348.95 254.144 348.739 254.31 348.489C254.479 348.237 254.598 347.948 254.666 347.622H255.81C255.724 348.105 255.567 348.537 255.34 348.919C255.112 349.3 254.829 349.625 254.49 349.893C254.152 350.158 253.772 350.359 253.35 350.498C252.931 350.636 252.484 350.705 252.006 350.705C251.2 350.705 250.483 350.508 249.855 350.114C249.227 349.721 248.733 349.16 248.373 348.434C248.013 347.708 247.833 346.846 247.833 345.849C247.833 344.852 248.013 343.99 248.373 343.264C248.733 342.537 249.227 341.977 249.855 341.583C250.483 341.189 251.2 340.992 252.006 340.992C252.484 340.992 252.931 341.062 253.35 341.2C253.772 341.339 254.152 341.542 254.49 341.809C254.829 342.074 255.112 342.397 255.34 342.779C255.567 343.157 255.724 343.59 255.81 344.076ZM265.638 345.849C265.638 346.846 265.458 347.708 265.098 348.434C264.738 349.16 264.244 349.721 263.616 350.114C262.988 350.508 262.271 350.705 261.464 350.705C260.658 350.705 259.941 350.508 259.313 350.114C258.685 349.721 258.191 349.16 257.831 348.434C257.471 347.708 257.291 346.846 257.291 345.849C257.291 344.852 257.471 343.99 257.831 343.264C258.191 342.537 258.685 341.977 259.313 341.583C259.941 341.189 260.658 340.992 261.464 340.992C262.271 340.992 262.988 341.189 263.616 341.583C264.244 341.977 264.738 342.537 265.098 343.264C265.458 343.99 265.638 344.852 265.638 345.849ZM264.53 345.849C264.53 345.03 264.393 344.339 264.119 343.776C263.848 343.213 263.48 342.787 263.016 342.497C262.554 342.208 262.037 342.063 261.464 342.063C260.892 342.063 260.373 342.208 259.909 342.497C259.447 342.787 259.079 343.213 258.805 343.776C258.535 344.339 258.399 345.03 258.399 345.849C258.399 346.667 258.535 347.358 258.805 347.922C259.079 348.485 259.447 348.911 259.909 349.2C260.373 349.49 260.892 349.634 261.464 349.634C262.037 349.634 262.554 349.49 263.016 349.2C263.48 348.911 263.848 348.485 264.119 347.922C264.393 347.358 264.53 346.667 264.53 345.849ZM275.06 341.122V350.576H273.952L268.8 343.153H268.708V350.576H267.563V341.122H268.671L273.841 348.563H273.934V341.122H275.06ZM282.521 343.485C282.466 343.017 282.241 342.654 281.847 342.396C281.453 342.137 280.97 342.008 280.398 342.008C279.979 342.008 279.613 342.076 279.299 342.211C278.988 342.346 278.745 342.533 278.57 342.77C278.397 343.007 278.311 343.276 278.311 343.578C278.311 343.83 278.371 344.047 278.491 344.228C278.614 344.407 278.771 344.556 278.962 344.676C279.153 344.793 279.353 344.89 279.562 344.967C279.772 345.041 279.964 345.101 280.139 345.147L281.1 345.406C281.346 345.47 281.62 345.56 281.921 345.673C282.226 345.787 282.517 345.943 282.794 346.14C283.074 346.334 283.305 346.583 283.486 346.888C283.668 347.192 283.759 347.566 283.759 348.009C283.759 348.52 283.625 348.982 283.357 349.394C283.092 349.807 282.705 350.134 282.194 350.378C281.686 350.621 281.069 350.742 280.342 350.742C279.665 350.742 279.079 350.633 278.584 350.415C278.091 350.196 277.703 349.891 277.42 349.5C277.14 349.11 276.982 348.656 276.945 348.139H278.127C278.157 348.496 278.277 348.791 278.487 349.025C278.699 349.256 278.967 349.428 279.29 349.542C279.616 349.653 279.967 349.708 280.342 349.708C280.779 349.708 281.172 349.637 281.52 349.496C281.867 349.351 282.143 349.151 282.346 348.896C282.549 348.637 282.651 348.336 282.651 347.991C282.651 347.677 282.563 347.422 282.388 347.225C282.212 347.028 281.981 346.868 281.695 346.744C281.409 346.621 281.1 346.514 280.767 346.421L279.604 346.089C278.865 345.877 278.28 345.573 277.85 345.179C277.419 344.786 277.203 344.27 277.203 343.633C277.203 343.104 277.346 342.642 277.633 342.248C277.922 341.851 278.31 341.543 278.796 341.325C279.285 341.103 279.832 340.992 280.435 340.992C281.044 340.992 281.586 341.102 282.06 341.32C282.534 341.536 282.909 341.831 283.186 342.206C283.466 342.582 283.614 343.008 283.629 343.485H282.521ZM285.124 342.137V341.122H292.215V342.137H289.242V350.576H288.097V342.137H285.124ZM293.982 350.576V341.122H297.176C297.915 341.122 298.521 341.248 298.995 341.5C299.469 341.749 299.82 342.093 300.048 342.53C300.276 342.967 300.389 343.464 300.389 344.021C300.389 344.578 300.276 345.072 300.048 345.503C299.82 345.933 299.471 346.272 299 346.518C298.529 346.761 297.927 346.883 297.195 346.883H294.61V345.849H297.158C297.663 345.849 298.069 345.775 298.377 345.627C298.688 345.48 298.912 345.27 299.051 344.999C299.192 344.725 299.263 344.399 299.263 344.021C299.263 343.642 299.192 343.311 299.051 343.028C298.909 342.745 298.683 342.527 298.372 342.373C298.061 342.216 297.65 342.137 297.139 342.137H295.127V350.576H293.982ZM298.432 346.329L300.759 350.576H299.429L297.139 346.329H298.432ZM308.502 341.122H309.647V347.382C309.647 348.028 309.494 348.605 309.19 349.113C308.888 349.617 308.462 350.016 307.911 350.308C307.36 350.598 306.714 350.742 305.972 350.742C305.23 350.742 304.584 350.598 304.033 350.308C303.482 350.016 303.054 349.617 302.75 349.113C302.448 348.605 302.297 348.028 302.297 347.382V341.122H303.442V347.289C303.442 347.751 303.544 348.162 303.747 348.522C303.95 348.879 304.239 349.16 304.615 349.367C304.993 349.57 305.446 349.671 305.972 349.671C306.498 349.671 306.951 349.57 307.329 349.367C307.708 349.16 307.997 348.879 308.197 348.522C308.4 348.162 308.502 347.751 308.502 347.289V341.122ZM319.541 344.076H318.396C318.328 343.747 318.21 343.458 318.041 343.208C317.874 342.959 317.671 342.75 317.431 342.58C317.194 342.408 316.931 342.279 316.642 342.193C316.352 342.106 316.051 342.063 315.737 342.063C315.165 342.063 314.646 342.208 314.181 342.497C313.72 342.787 313.352 343.213 313.078 343.776C312.807 344.339 312.672 345.03 312.672 345.849C312.672 346.667 312.807 347.358 313.078 347.922C313.352 348.485 313.72 348.911 314.181 349.2C314.646 349.49 315.165 349.634 315.737 349.634C316.051 349.634 316.352 349.591 316.642 349.505C316.931 349.419 317.194 349.291 317.431 349.122C317.671 348.95 317.874 348.739 318.041 348.489C318.21 348.237 318.328 347.948 318.396 347.622H319.541C319.455 348.105 319.298 348.537 319.07 348.919C318.842 349.3 318.559 349.625 318.221 349.893C317.882 350.158 317.502 350.359 317.08 350.498C316.662 350.636 316.214 350.705 315.737 350.705C314.931 350.705 314.214 350.508 313.586 350.114C312.958 349.721 312.464 349.16 312.104 348.434C311.744 347.708 311.564 346.846 311.564 345.849C311.564 344.852 311.744 343.99 312.104 343.264C312.464 342.537 312.958 341.977 313.586 341.583C314.214 341.189 314.931 340.992 315.737 340.992C316.214 340.992 316.662 341.062 317.08 341.2C317.502 341.339 317.882 341.542 318.221 341.809C318.559 342.074 318.842 342.397 319.07 342.779C319.298 343.157 319.455 343.59 319.541 344.076ZM320.874 342.137V341.122H327.965V342.137H324.992V350.576H323.847V342.137H320.874ZM330.877 341.122V350.576H329.732V341.122H330.877ZM341.15 345.849C341.15 346.846 340.969 347.708 340.609 348.434C340.249 349.16 339.755 349.721 339.127 350.114C338.5 350.508 337.783 350.705 336.976 350.705C336.17 350.705 335.453 350.508 334.825 350.114C334.197 349.721 333.703 349.16 333.343 348.434C332.983 347.708 332.803 346.846 332.803 345.849C332.803 344.852 332.983 343.99 333.343 343.264C333.703 342.537 334.197 341.977 334.825 341.583C335.453 341.189 336.17 340.992 336.976 340.992C337.783 340.992 338.5 341.189 339.127 341.583C339.755 341.977 340.249 342.537 340.609 343.264C340.969 343.99 341.15 344.852 341.15 345.849ZM340.042 345.849C340.042 345.03 339.905 344.339 339.631 343.776C339.36 343.213 338.992 342.787 338.527 342.497C338.066 342.208 337.549 342.063 336.976 342.063C336.404 342.063 335.885 342.208 335.42 342.497C334.959 342.787 334.591 343.213 334.317 343.776C334.046 344.339 333.911 345.03 333.911 345.849C333.911 346.667 334.046 347.358 334.317 347.922C334.591 348.485 334.959 348.911 335.42 349.2C335.885 349.49 336.404 349.634 336.976 349.634C337.549 349.634 338.066 349.49 338.527 349.2C338.992 348.911 339.36 348.485 339.631 347.922C339.905 347.358 340.042 346.667 340.042 345.849ZM350.572 341.122V350.576H349.464L344.312 343.153H344.219V350.576H343.075V341.122H344.183L349.353 348.563H349.445V341.122H350.572Z" fill="#4870F3"/>
<path d="M365.49 352.017H342.71C341.96 352.017 341.352 352.625 341.352 353.375C341.352 354.125 341.96 354.733 342.71 354.733H365.49C366.24 354.733 366.849 354.125 366.849 353.375C366.849 352.625 366.24 352.017 365.49 352.017Z" fill="#ED7445"/>
<path d="M355.949 332.651C355.842 332.358 355.564 332.163 355.252 332.163H352.641C352.326 332.163 352.045 332.362 351.941 332.66L344.59 353.69H363.608L355.949 332.651Z" fill="#ED7445"/>
<path d="M350.581 336.552L349.42 339.874H358.579L357.369 336.552H350.581Z" fill="#ECEFF1"/>
<path d="M347.622 345.016L346.461 348.338H361.661L360.451 345.016H347.622Z" fill="#ECEFF1"/>
<path d="M157.288 352.017H134.508C133.758 352.017 133.15 352.625 133.15 353.375C133.15 354.125 133.758 354.733 134.508 354.733H157.288C158.038 354.733 158.646 354.125 158.646 353.375C158.646 352.625 158.039 352.017 157.288 352.017Z" fill="#ED7445"/>
<path d="M147.748 332.651C147.641 332.358 147.363 332.163 147.051 332.163H144.44C144.125 332.163 143.844 332.362 143.74 332.66L136.389 353.69H155.407L147.748 332.651Z" fill="#ED7445"/>
<path d="M142.38 336.552L141.219 339.874H150.378L149.169 336.552H142.38Z" fill="#ECEFF1"/>
<path d="M139.421 345.016L138.26 348.338H153.459L152.249 345.016H139.421Z" fill="#ECEFF1"/>
<path opacity="0.5" d="M158.5 200.604H103.902V295.338H158.5H173.426H237.613V130.143H158.5V200.604Z" fill="#99B6FF"/>
<path opacity="0.5" d="M327.613 206.342V70.674H248.5V295.338H324.498H327.613H385.695V206.342H327.613Z" fill="#99B6FF"/>
<path d="M466.999 292.338H32.998V294.338H466.999V292.338Z" fill="#4870F3"/>
<path d="M318.813 153.338H128.09V303.229H318.813V153.338Z" fill="#A1CAFF"/>
<path d="M318.813 170.317H128.09V303.229H318.813V170.317Z" fill="white"/>
<path d="M134.924 164.285C136.461 164.285 137.707 163.039 137.707 161.502C137.707 159.965 136.461 158.719 134.924 158.719C133.387 158.719 132.141 159.965 132.141 161.502C132.141 163.039 133.387 164.285 134.924 164.285Z" fill="white"/>
<path d="M149.539 161.502C149.539 163.039 148.293 164.285 146.756 164.285C145.219 164.285 143.973 163.039 143.973 161.502C143.973 159.965 145.219 158.719 146.756 158.719C148.293 158.719 149.539 159.965 149.539 161.502Z" fill="white"/>
<path d="M161.371 161.502C161.371 163.039 160.125 164.285 158.588 164.285C157.051 164.285 155.805 163.039 155.805 161.502C155.805 159.965 157.051 158.719 158.588 158.719C160.125 158.719 161.371 159.965 161.371 161.502Z" fill="white"/>
<path d="M253.197 166.507H174.7C172.076 166.507 169.949 164.38 169.949 161.756C169.949 159.132 172.076 157.005 174.7 157.005H253.197C255.821 157.005 257.948 159.132 257.948 161.756C257.949 164.38 255.822 166.507 253.197 166.507Z" fill="white"/>
<path d="M307.194 166.507H270.03C267.406 166.507 265.279 164.38 265.279 161.756C265.279 159.132 267.406 157.005 270.03 157.005H307.194C309.818 157.005 311.945 159.132 311.945 161.756C311.945 164.38 309.818 166.507 307.194 166.507Z" fill="white"/>
<path d="M211.159 229.536H143.314V267.831H211.159V229.536Z" fill="#A1CAFF"/>
<path d="M211.159 182.536H143.314V220.831H211.159V182.536Z" fill="#A1CAFF"/>
<path d="M210.57 277.505H143.904V280.505H210.57V277.505Z" fill="#A1CAFF"/>
<path d="M210.57 287.505H143.904V290.505H210.57V287.505Z" fill="#A1CAFF"/>
<path d="M301.281 277.505H234.615V280.505H301.281V277.505Z" fill="#A1CAFF"/>
<path d="M301.281 287.505H234.615V290.505H301.281V287.505Z" fill="#A1CAFF"/>
<path d="M319.813 304.23H127.09V152.338H319.813V304.23ZM129.09 302.23H317.813V154.338H129.09V302.23Z" fill="#4870F3"/>
<path d="M365.505 281.672H345.939V117.006H365.505V281.672ZM347.939 279.672H363.505V119.006H347.939V279.672Z" fill="#4870F3"/>
<path d="M368.185 272.146H343.262V290.005H368.185V272.146Z" fill="#A1CAFF"/>
<path d="M364.613 262.671H347.28C346.883 262.671 346.523 262.436 346.363 262.071C346.204 261.707 346.276 261.283 346.546 260.991L363.212 242.992L364.68 244.35L349.568 260.67H364.612V262.671H364.613Z" fill="#4870F3"/>
<path d="M364.613 244.637H347.28C346.883 244.637 346.523 244.402 346.363 244.037C346.204 243.673 346.276 243.249 346.546 242.957L363.212 224.957L364.68 226.315L349.568 242.636H364.612V244.637H364.613Z" fill="#4870F3"/>
<path d="M364.613 226.603H347.28C346.883 226.603 346.523 226.368 346.363 226.003C346.204 225.639 346.276 225.215 346.546 224.923L363.212 206.923L364.68 208.281L349.568 224.602H364.612V226.603H364.613Z" fill="#4870F3"/>
<path d="M364.613 208.569H347.28C346.883 208.569 346.523 208.334 346.363 207.969C346.204 207.605 346.276 207.181 346.546 206.889L363.212 188.889L364.68 190.247L349.568 206.568H364.612V208.569H364.613Z" fill="#4870F3"/>
<path d="M364.613 190.535H347.28C346.883 190.535 346.523 190.3 346.363 189.935C346.204 189.571 346.276 189.147 346.546 188.855L363.212 170.855L364.68 172.213L349.568 188.534H364.612V190.535H364.613Z" fill="#4870F3"/>
<path d="M364.613 172.501H347.28C346.883 172.501 346.523 172.266 346.363 171.901C346.204 171.537 346.276 171.113 346.546 170.821L363.212 152.821L364.68 154.179L349.568 170.5H364.612V172.501H364.613Z" fill="#4870F3"/>
<path d="M364.613 154.467H347.28C346.883 154.467 346.523 154.232 346.363 153.867C346.204 153.503 346.276 153.079 346.546 152.787L363.212 134.787L364.68 136.145L349.568 152.466H364.612V154.467H364.613Z" fill="#4870F3"/>
<path d="M364.613 136.433H347.28C346.883 136.433 346.523 136.198 346.363 135.833C346.203 135.468 346.276 135.045 346.546 134.753L363.212 116.753L364.68 118.111L349.568 134.432H364.612V136.433H364.613Z" fill="#4870F3"/>
<path d="M365.473 110.052H333.754V136.792H365.473V110.052Z" fill="#ED7445"/>
<path d="M413.139 110.052H381.42V125.411H413.139V110.052Z" fill="#ED7445"/>
<path d="M412.612 112.005H255.945C255.393 112.005 254.945 111.557 254.945 111.005C254.945 110.453 255.393 110.005 255.945 110.005H412.612C413.164 110.005 413.612 110.453 413.612 111.005C413.612 111.557 413.164 112.005 412.612 112.005Z" fill="#4870F3"/>
<path d="M264.223 115.672H263.223V180.672H264.223V115.672Z" fill="#4870F3"/>
<path d="M376.684 286.813H334.76V294.672H376.684V286.813Z" fill="#4870F3"/>
<path d="M349.729 111.743C349.601 111.743 349.473 111.694 349.376 111.597L341.022 103.243H264.436L256.582 111.097C256.387 111.292 256.07 111.292 255.875 111.097C255.68 110.902 255.68 110.585 255.875 110.39L264.021 102.244H341.435L350.081 110.89C350.276 111.085 350.276 111.402 350.081 111.597C349.985 111.694 349.857 111.743 349.729 111.743Z" fill="#4870F3"/>
<path d="M413.28 111.743C413.1 111.743 412.926 111.645 412.837 111.475L404.477 95.505H384.203L376.342 110.97C376.217 111.216 375.915 111.312 375.67 111.189C375.424 111.064 375.326 110.763 375.451 110.517L383.59 94.505H405.083L413.723 111.011C413.851 111.256 413.757 111.558 413.512 111.686C413.437 111.725 413.358 111.743 413.28 111.743Z" fill="#4870F3"/>
<path d="M267.391 115.671C267.391 117.696 265.749 119.338 263.724 119.338C261.699 119.338 260.057 117.696 260.057 115.671C260.057 113.646 261.699 112.004 263.724 112.004C265.749 112.005 267.391 113.646 267.391 115.671Z" fill="#A1CAFF"/>
<path d="M302.847 179.37L219.113 187.106L223.1 230.257L306.834 222.521L302.847 179.37Z" fill="#A1CAFF"/>
<path d="M285.402 103.236C285.188 103.236 284.989 103.097 284.924 102.882C284.843 102.618 284.992 102.338 285.256 102.258L359.289 79.684C359.402 79.65 359.522 79.656 359.629 79.702L394.718 94.511C394.972 94.618 395.092 94.911 394.984 95.166C394.877 95.421 394.583 95.54 394.329 95.432L359.408 80.693L285.548 103.214C285.499 103.229 285.451 103.236 285.402 103.236Z" fill="#4870F3"/>
<path d="M347.789 111.81C347.671 111.81 347.551 111.789 347.434 111.744C346.918 111.548 346.659 110.971 346.855 110.454L358.512 79.78C358.67 79.365 359.08 79.102 359.529 79.139C359.973 79.176 360.34 79.501 360.427 79.938L366.453 109.854C366.562 110.395 366.211 110.922 365.67 111.032C365.13 111.137 364.602 110.79 364.492 110.249L359.15 83.729L348.723 111.165C348.572 111.564 348.192 111.81 347.789 111.81Z" fill="#4870F3"/>
<path d="M361.46 80.135C361.46 81.248 360.558 82.15 359.445 82.15C358.332 82.15 357.43 81.248 357.43 80.135C357.43 79.022 358.332 78.12 359.445 78.12C360.558 78.12 361.46 79.022 361.46 80.135Z" fill="#A1CAFF"/>
<path d="M274.862 111.838C274.752 111.838 274.641 111.802 274.548 111.727L264.729 103.79V111.211C264.729 111.487 264.505 111.711 264.229 111.711C263.953 111.711 263.729 111.487 263.729 111.211V102.743C263.729 102.55 263.84 102.375 264.014 102.292C264.187 102.209 264.394 102.232 264.544 102.355L275.177 110.95C275.392 111.123 275.425 111.438 275.251 111.653C275.152 111.775 275.008 111.838 274.862 111.838Z" fill="#4870F3"/>
<path d="M284.357 111.838C284.247 111.838 284.136 111.802 284.043 111.727L274.223 103.79V111.211C274.223 111.487 273.999 111.711 273.723 111.711C273.447 111.711 273.223 111.487 273.223 111.211V102.743C273.223 102.55 273.334 102.375 273.508 102.292C273.68 102.209 273.887 102.232 274.038 102.355L284.672 110.95C284.887 111.123 284.92 111.438 284.746 111.653C284.647 111.775 284.503 111.838 284.357 111.838Z" fill="#4870F3"/>
<path d="M293.853 111.838C293.743 111.838 293.632 111.802 293.539 111.727L283.719 103.79V111.211C283.719 111.487 283.495 111.711 283.219 111.711C282.943 111.711 282.719 111.487 282.719 111.211V102.743C282.719 102.55 282.83 102.375 283.004 102.292C283.176 102.209 283.383 102.232 283.534 102.355L294.168 110.95C294.383 111.123 294.416 111.438 294.242 111.653C294.144 111.775 293.999 111.838 293.853 111.838Z" fill="#4870F3"/>
<path d="M303.348 111.838C303.238 111.838 303.127 111.802 303.034 111.727L293.215 103.79V111.211C293.215 111.487 292.991 111.711 292.715 111.711C292.439 111.711 292.215 111.487 292.215 111.211V102.743C292.215 102.55 292.326 102.375 292.5 102.292C292.673 102.209 292.879 102.232 293.03 102.355L303.664 110.95C303.879 111.123 303.912 111.438 303.738 111.653C303.638 111.775 303.494 111.838 303.348 111.838Z" fill="#4870F3"/>
<path d="M312.843 111.838C312.733 111.838 312.622 111.802 312.529 111.727L302.709 103.79V111.211C302.709 111.487 302.485 111.711 302.209 111.711C301.933 111.711 301.709 111.487 301.709 111.211V102.743C301.709 102.55 301.82 102.375 301.994 102.292C302.167 102.209 302.373 102.232 302.524 102.355L313.158 110.95C313.373 111.123 313.406 111.438 313.232 111.653C313.134 111.775 312.989 111.838 312.843 111.838Z" fill="#4870F3"/>
<path d="M322.339 111.838C322.229 111.838 322.118 111.802 322.025 111.727L312.205 103.79V111.211C312.205 111.487 311.981 111.711 311.705 111.711C311.429 111.711 311.205 111.487 311.205 111.211V102.743C311.205 102.55 311.316 102.375 311.49 102.292C311.662 102.209 311.869 102.232 312.02 102.355L322.654 110.95C322.869 111.123 322.902 111.438 322.728 111.653C322.629 111.775 322.485 111.838 322.339 111.838Z" fill="#4870F3"/>
<path d="M331.835 111.838C331.725 111.838 331.614 111.802 331.521 111.727L321.701 103.79V111.211C321.701 111.487 321.477 111.711 321.201 111.711C320.925 111.711 320.701 111.487 320.701 111.211V102.743C320.701 102.55 320.812 102.375 320.986 102.292C321.158 102.209 321.365 102.232 321.516 102.355L332.15 110.95C332.365 111.123 332.398 111.438 332.224 111.653C332.125 111.775 331.981 111.838 331.835 111.838Z" fill="#4870F3"/>
<path d="M341.331 111.838C341.221 111.838 341.11 111.802 341.017 111.727L331.197 103.79V111.211C331.197 111.487 330.973 111.711 330.697 111.711C330.421 111.711 330.197 111.487 330.197 111.211V102.743C330.197 102.55 330.308 102.375 330.482 102.292C330.655 102.209 330.862 102.232 331.012 102.355L341.646 110.95C341.861 111.123 341.894 111.438 341.72 111.653C341.621 111.775 341.477 111.838 341.331 111.838Z" fill="#4870F3"/>
<path d="M397.465 111.838C397.323 111.838 397.182 111.778 397.083 111.661L384.33 96.61V111.211C384.33 111.487 384.106 111.711 383.83 111.711C383.554 111.711 383.33 111.487 383.33 111.211V95.247C383.33 95.037 383.461 94.85 383.658 94.778C383.856 94.705 384.076 94.763 384.212 94.924L397.847 111.015C398.026 111.225 397.999 111.541 397.789 111.719C397.694 111.799 397.579 111.838 397.465 111.838Z" fill="#4870F3"/>
<path d="M407.274 111.838C407.112 111.838 406.953 111.759 406.856 111.614L397.139 96.91V111.211C397.139 111.487 396.915 111.711 396.639 111.711C396.363 111.711 396.139 111.487 396.139 111.211V95.247C396.139 95.026 396.284 94.832 396.495 94.768C396.709 94.706 396.935 94.788 397.056 94.971L407.69 111.062C407.842 111.292 407.779 111.603 407.549 111.755C407.464 111.811 407.369 111.838 407.274 111.838Z" fill="#4870F3"/>
<path d="M266.872 182.005C266.872 183.744 265.462 185.153 263.724 185.153C261.985 185.153 260.576 183.743 260.576 182.005C260.576 180.266 261.986 178.857 263.724 178.857C265.462 178.856 266.872 180.266 266.872 182.005Z" fill="#ED7445"/>
<path d="M95.1133 244.839H93.1133V292.838H95.1133V244.839Z" fill="#4870F3"/>
<path d="M57.1133 244.839H55.1133V292.838H57.1133V244.839Z" fill="#4870F3"/>
<path d="M100.332 249.338H50.1133V267.838H100.332V249.338Z" fill="#577FE3"/>
<path d="M100.333 267.838V250.338L91.0996 267.838H100.333Z" fill="#ED7445"/>
<path d="M68.5977 267.838H79.3387L89.1007 249.338H78.3587L68.5977 267.838Z" fill="#ED7445"/>
<path d="M55.8593 249.338L50.1133 260.228V267.838H56.8393L66.6003 249.338H55.8593Z" fill="#ED7445"/>
<path d="M102.613 278.839H47.6133V280.839H102.613V278.839Z" fill="#4870F3"/>
<path d="M443.113 244.839H441.113V292.838H443.113V244.839Z" fill="#4870F3"/>
<path d="M405.113 244.839H403.113V292.838H405.113V244.839Z" fill="#4870F3"/>
<path d="M448.332 249.338H398.113V267.838H448.332V249.338Z" fill="#577FE3"/>
<path d="M448.332 267.838V250.338L439.098 267.838H448.332Z" fill="#ED7445"/>
<path d="M416.598 267.838H427.339L437.1 249.338H426.359L416.598 267.838Z" fill="#ED7445"/>
<path d="M403.859 249.338L398.113 260.228V267.838H404.839L414.6 249.338H403.859Z" fill="#ED7445"/>
<path d="M450.613 278.839H395.613V280.839H450.613V278.839Z" fill="#4870F3"/>
<path d="M124.494 306.666H101.713C100.963 306.666 100.355 307.274 100.355 308.025C100.355 308.776 100.963 309.383 101.713 309.383H124.494C125.244 309.383 125.852 308.775 125.852 308.025C125.852 307.275 125.244 306.666 124.494 306.666Z" fill="#ED7445"/>
<path d="M114.953 287.299C114.846 287.006 114.568 286.811 114.256 286.811H111.645C111.33 286.811 111.049 287.01 110.945 287.308L103.594 308.338H122.612L114.953 287.299Z" fill="#ED7445"/>
<path d="M109.585 291.201L108.424 294.522H117.583L116.373 291.201H109.585Z" fill="#ECEFF1"/>
<path d="M106.626 299.665L105.465 302.987H120.665L119.455 299.665H106.626Z" fill="#ECEFF1"/>
<path opacity="0.5" d="M121.092 129.618C119.424 129.618 117.882 130.148 116.615 131.042V128.837C116.615 122.486 111.466 117.337 105.115 117.337C98.7635 117.337 93.6145 122.486 93.6145 128.837V133.183C92.5735 132.195 91.1696 131.585 89.6206 131.585C86.4126 131.585 83.8105 134.186 83.8105 137.395H128.868C128.869 133.1 125.387 129.618 121.092 129.618Z" fill="#99B6FF"/>
<path opacity="0.5" d="M213.952 98.279C212.737 98.279 211.615 98.665 210.693 99.316V97.71C210.693 93.086 206.945 89.338 202.321 89.338C197.697 89.338 193.949 93.087 193.949 97.71V100.874C193.191 100.155 192.169 99.711 191.041 99.711C188.705 99.711 186.811 101.605 186.811 103.941H219.614C219.614 100.814 217.079 98.279 213.952 98.279Z" fill="#99B6FF"/>
</svg>
